<mxfile host="app.diagrams.net" agent="Mozilla/5.0 (Windows NT 10.0; Win64; x64) AppleWebKit/537.36 (KHTML, like Gecko) Chrome/131.0.0.0 Safari/537.36 Edg/131.0.0.0" version="25.0.3">
  <diagram name="Page-1" id="igS7QiYSjaWsCJ-6rg7u">
    <mxGraphModel dx="1226" dy="629" grid="1" gridSize="10" guides="1" tooltips="1" connect="1" arrows="1" fold="1" page="1" pageScale="1" pageWidth="850" pageHeight="1100" math="0" shadow="0">
      <root>
        <mxCell id="0" />
        <mxCell id="1" parent="0" />
        <mxCell id="YF7htum3i6kyVD8am5VY-13" style="edgeStyle=orthogonalEdgeStyle;rounded=0;orthogonalLoop=1;jettySize=auto;html=1;entryX=0.5;entryY=0;entryDx=0;entryDy=0;" edge="1" parent="1" source="YF7htum3i6kyVD8am5VY-1" target="YF7htum3i6kyVD8am5VY-7">
          <mxGeometry relative="1" as="geometry" />
        </mxCell>
        <mxCell id="YF7htum3i6kyVD8am5VY-1" value="" style="ellipse;whiteSpace=wrap;html=1;" vertex="1" parent="1">
          <mxGeometry x="290" width="120" height="80" as="geometry" />
        </mxCell>
        <mxCell id="YF7htum3i6kyVD8am5VY-4" value="Start" style="text;strokeColor=none;align=center;fillColor=none;html=1;verticalAlign=middle;whiteSpace=wrap;rounded=0;" vertex="1" parent="1">
          <mxGeometry x="320" y="25" width="60" height="30" as="geometry" />
        </mxCell>
        <mxCell id="YF7htum3i6kyVD8am5VY-5" value="" style="ellipse;whiteSpace=wrap;html=1;" vertex="1" parent="1">
          <mxGeometry x="290" y="690" width="120" height="80" as="geometry" />
        </mxCell>
        <mxCell id="YF7htum3i6kyVD8am5VY-6" value="End" style="text;strokeColor=none;align=center;fillColor=none;html=1;verticalAlign=middle;whiteSpace=wrap;rounded=0;" vertex="1" parent="1">
          <mxGeometry x="320" y="710" width="60" height="30" as="geometry" />
        </mxCell>
        <mxCell id="YF7htum3i6kyVD8am5VY-15" style="edgeStyle=orthogonalEdgeStyle;rounded=0;orthogonalLoop=1;jettySize=auto;html=1;entryX=0.5;entryY=0;entryDx=0;entryDy=0;" edge="1" parent="1" source="YF7htum3i6kyVD8am5VY-7" target="YF7htum3i6kyVD8am5VY-9">
          <mxGeometry relative="1" as="geometry" />
        </mxCell>
        <mxCell id="YF7htum3i6kyVD8am5VY-7" value="" style="shape=parallelogram;perimeter=parallelogramPerimeter;whiteSpace=wrap;html=1;fixedSize=1;" vertex="1" parent="1">
          <mxGeometry x="290" y="110" width="120" height="60" as="geometry" />
        </mxCell>
        <mxCell id="YF7htum3i6kyVD8am5VY-8" value="Nhập n (n&amp;gt;0)&lt;div&gt;Cho biến count&lt;/div&gt;" style="text;strokeColor=none;align=center;fillColor=none;html=1;verticalAlign=middle;whiteSpace=wrap;rounded=0;" vertex="1" parent="1">
          <mxGeometry x="320" y="125" width="60" height="30" as="geometry" />
        </mxCell>
        <mxCell id="YF7htum3i6kyVD8am5VY-9" value="" style="rhombus;whiteSpace=wrap;html=1;" vertex="1" parent="1">
          <mxGeometry x="310" y="200" width="80" height="60" as="geometry" />
        </mxCell>
        <mxCell id="YF7htum3i6kyVD8am5VY-12" style="edgeStyle=orthogonalEdgeStyle;rounded=0;orthogonalLoop=1;jettySize=auto;html=1;entryX=0;entryY=0.5;entryDx=0;entryDy=0;" edge="1" parent="1" source="YF7htum3i6kyVD8am5VY-10" target="YF7htum3i6kyVD8am5VY-11">
          <mxGeometry relative="1" as="geometry" />
        </mxCell>
        <mxCell id="YF7htum3i6kyVD8am5VY-37" style="edgeStyle=orthogonalEdgeStyle;rounded=0;orthogonalLoop=1;jettySize=auto;html=1;entryX=0.5;entryY=0;entryDx=0;entryDy=0;" edge="1" parent="1" source="YF7htum3i6kyVD8am5VY-10" target="YF7htum3i6kyVD8am5VY-17">
          <mxGeometry relative="1" as="geometry" />
        </mxCell>
        <mxCell id="YF7htum3i6kyVD8am5VY-10" value="if ( n ==2 )" style="text;strokeColor=none;align=center;fillColor=none;html=1;verticalAlign=middle;whiteSpace=wrap;rounded=0;" vertex="1" parent="1">
          <mxGeometry x="320" y="215" width="60" height="30" as="geometry" />
        </mxCell>
        <mxCell id="YF7htum3i6kyVD8am5VY-11" value="" style="rounded=0;whiteSpace=wrap;html=1;" vertex="1" parent="1">
          <mxGeometry x="590" y="215" width="120" height="30" as="geometry" />
        </mxCell>
        <mxCell id="YF7htum3i6kyVD8am5VY-16" value="In &quot; 2 là số nguyên tố&quot;" style="text;strokeColor=none;align=center;fillColor=none;html=1;verticalAlign=middle;whiteSpace=wrap;rounded=0;" vertex="1" parent="1">
          <mxGeometry x="590" y="215" width="120" height="30" as="geometry" />
        </mxCell>
        <mxCell id="YF7htum3i6kyVD8am5VY-50" style="edgeStyle=orthogonalEdgeStyle;rounded=0;orthogonalLoop=1;jettySize=auto;html=1;exitX=0;exitY=0.5;exitDx=0;exitDy=0;entryX=0;entryY=0.5;entryDx=0;entryDy=0;" edge="1" parent="1" source="YF7htum3i6kyVD8am5VY-17" target="YF7htum3i6kyVD8am5VY-31">
          <mxGeometry relative="1" as="geometry" />
        </mxCell>
        <mxCell id="YF7htum3i6kyVD8am5VY-17" value="" style="rhombus;whiteSpace=wrap;html=1;" vertex="1" parent="1">
          <mxGeometry x="295" y="290" width="110" height="70" as="geometry" />
        </mxCell>
        <mxCell id="YF7htum3i6kyVD8am5VY-38" style="edgeStyle=orthogonalEdgeStyle;rounded=0;orthogonalLoop=1;jettySize=auto;html=1;entryX=0.5;entryY=0;entryDx=0;entryDy=0;" edge="1" parent="1" source="YF7htum3i6kyVD8am5VY-19" target="YF7htum3i6kyVD8am5VY-28">
          <mxGeometry relative="1" as="geometry" />
        </mxCell>
        <mxCell id="YF7htum3i6kyVD8am5VY-19" value="for (&lt;div&gt;int i =2;&lt;/div&gt;&lt;div&gt;i &amp;lt;= sqrt(n);&lt;br&gt;i++&lt;br&gt;&lt;br&gt;&lt;/div&gt;" style="text;strokeColor=none;align=center;fillColor=none;html=1;verticalAlign=middle;whiteSpace=wrap;rounded=0;" vertex="1" parent="1">
          <mxGeometry x="310" y="320" width="80" height="30" as="geometry" />
        </mxCell>
        <mxCell id="YF7htum3i6kyVD8am5VY-20" value="" style="rhombus;whiteSpace=wrap;html=1;" vertex="1" parent="1">
          <mxGeometry x="310" y="400" width="80" height="60" as="geometry" />
        </mxCell>
        <mxCell id="YF7htum3i6kyVD8am5VY-21" value="if ( n%i ==0)" style="text;strokeColor=none;align=center;fillColor=none;html=1;verticalAlign=middle;whiteSpace=wrap;rounded=0;" vertex="1" parent="1">
          <mxGeometry x="305" y="415" width="90" height="30" as="geometry" />
        </mxCell>
        <mxCell id="YF7htum3i6kyVD8am5VY-22" value="" style="rounded=0;whiteSpace=wrap;html=1;" vertex="1" parent="1">
          <mxGeometry x="430" y="410" width="100" height="40" as="geometry" />
        </mxCell>
        <mxCell id="YF7htum3i6kyVD8am5VY-53" style="edgeStyle=orthogonalEdgeStyle;rounded=0;orthogonalLoop=1;jettySize=auto;html=1;entryX=1;entryY=0.5;entryDx=0;entryDy=0;" edge="1" parent="1" source="YF7htum3i6kyVD8am5VY-23" target="YF7htum3i6kyVD8am5VY-17">
          <mxGeometry relative="1" as="geometry">
            <Array as="points">
              <mxPoint x="480" y="325" />
            </Array>
          </mxGeometry>
        </mxCell>
        <mxCell id="YF7htum3i6kyVD8am5VY-23" value="count ++" style="text;strokeColor=none;align=center;fillColor=none;html=1;verticalAlign=middle;whiteSpace=wrap;rounded=0;" vertex="1" parent="1">
          <mxGeometry x="440" y="415" width="90" height="30" as="geometry" />
        </mxCell>
        <mxCell id="YF7htum3i6kyVD8am5VY-26" value="" style="endArrow=none;html=1;rounded=0;entryX=0.5;entryY=1;entryDx=0;entryDy=0;" edge="1" parent="1" target="YF7htum3i6kyVD8am5VY-16">
          <mxGeometry width="50" height="50" relative="1" as="geometry">
            <mxPoint x="650" y="730" as="sourcePoint" />
            <mxPoint x="450" y="450" as="targetPoint" />
          </mxGeometry>
        </mxCell>
        <mxCell id="YF7htum3i6kyVD8am5VY-27" value="" style="endArrow=classic;html=1;rounded=0;entryX=1;entryY=0.5;entryDx=0;entryDy=0;" edge="1" parent="1" target="YF7htum3i6kyVD8am5VY-5">
          <mxGeometry width="50" height="50" relative="1" as="geometry">
            <mxPoint x="650" y="730" as="sourcePoint" />
            <mxPoint x="450" y="450" as="targetPoint" />
          </mxGeometry>
        </mxCell>
        <mxCell id="YF7htum3i6kyVD8am5VY-28" value="" style="rhombus;whiteSpace=wrap;html=1;" vertex="1" parent="1">
          <mxGeometry x="310" y="400" width="80" height="60" as="geometry" />
        </mxCell>
        <mxCell id="YF7htum3i6kyVD8am5VY-43" style="edgeStyle=orthogonalEdgeStyle;rounded=0;orthogonalLoop=1;jettySize=auto;html=1;entryX=0;entryY=0.5;entryDx=0;entryDy=0;" edge="1" parent="1" source="YF7htum3i6kyVD8am5VY-29" target="YF7htum3i6kyVD8am5VY-22">
          <mxGeometry relative="1" as="geometry" />
        </mxCell>
        <mxCell id="YF7htum3i6kyVD8am5VY-29" value="if ( n%i ==0)" style="text;strokeColor=none;align=center;fillColor=none;html=1;verticalAlign=middle;whiteSpace=wrap;rounded=0;" vertex="1" parent="1">
          <mxGeometry x="305" y="415" width="90" height="30" as="geometry" />
        </mxCell>
        <mxCell id="YF7htum3i6kyVD8am5VY-40" style="edgeStyle=orthogonalEdgeStyle;rounded=0;orthogonalLoop=1;jettySize=auto;html=1;entryX=0.5;entryY=0;entryDx=0;entryDy=0;" edge="1" parent="1" source="YF7htum3i6kyVD8am5VY-30" target="YF7htum3i6kyVD8am5VY-33">
          <mxGeometry relative="1" as="geometry" />
        </mxCell>
        <mxCell id="YF7htum3i6kyVD8am5VY-30" value="" style="rhombus;whiteSpace=wrap;html=1;" vertex="1" parent="1">
          <mxGeometry x="310" y="500" width="80" height="60" as="geometry" />
        </mxCell>
        <mxCell id="YF7htum3i6kyVD8am5VY-44" style="edgeStyle=orthogonalEdgeStyle;rounded=0;orthogonalLoop=1;jettySize=auto;html=1;entryX=0;entryY=0.5;entryDx=0;entryDy=0;" edge="1" parent="1" source="YF7htum3i6kyVD8am5VY-31" target="YF7htum3i6kyVD8am5VY-35">
          <mxGeometry relative="1" as="geometry" />
        </mxCell>
        <mxCell id="YF7htum3i6kyVD8am5VY-31" value="if(count ==0)" style="text;strokeColor=none;align=center;fillColor=none;html=1;verticalAlign=middle;whiteSpace=wrap;rounded=0;" vertex="1" parent="1">
          <mxGeometry x="305" y="515" width="90" height="30" as="geometry" />
        </mxCell>
        <mxCell id="YF7htum3i6kyVD8am5VY-42" style="edgeStyle=orthogonalEdgeStyle;rounded=0;orthogonalLoop=1;jettySize=auto;html=1;entryX=0.5;entryY=0;entryDx=0;entryDy=0;" edge="1" parent="1" source="YF7htum3i6kyVD8am5VY-33" target="YF7htum3i6kyVD8am5VY-5">
          <mxGeometry relative="1" as="geometry" />
        </mxCell>
        <mxCell id="YF7htum3i6kyVD8am5VY-33" value="" style="rounded=0;whiteSpace=wrap;html=1;" vertex="1" parent="1">
          <mxGeometry x="300" y="600" width="100" height="40" as="geometry" />
        </mxCell>
        <mxCell id="YF7htum3i6kyVD8am5VY-34" value="In: &quot; n không là số nguyên tố&quot;" style="text;strokeColor=none;align=center;fillColor=none;html=1;verticalAlign=middle;whiteSpace=wrap;rounded=0;" vertex="1" parent="1">
          <mxGeometry x="310" y="605" width="90" height="30" as="geometry" />
        </mxCell>
        <mxCell id="YF7htum3i6kyVD8am5VY-45" style="edgeStyle=orthogonalEdgeStyle;rounded=0;orthogonalLoop=1;jettySize=auto;html=1;" edge="1" parent="1" source="YF7htum3i6kyVD8am5VY-35">
          <mxGeometry relative="1" as="geometry">
            <mxPoint x="480" y="730" as="targetPoint" />
          </mxGeometry>
        </mxCell>
        <mxCell id="YF7htum3i6kyVD8am5VY-35" value="" style="rounded=0;whiteSpace=wrap;html=1;" vertex="1" parent="1">
          <mxGeometry x="430" y="510" width="100" height="40" as="geometry" />
        </mxCell>
        <mxCell id="YF7htum3i6kyVD8am5VY-36" value="In: &quot; n là số nguyên tố&quot;" style="text;strokeColor=none;align=center;fillColor=none;html=1;verticalAlign=middle;whiteSpace=wrap;rounded=0;" vertex="1" parent="1">
          <mxGeometry x="440" y="515" width="90" height="30" as="geometry" />
        </mxCell>
        <mxCell id="YF7htum3i6kyVD8am5VY-54" value="true" style="text;strokeColor=none;align=center;fillColor=none;html=1;verticalAlign=middle;whiteSpace=wrap;rounded=0;" vertex="1" parent="1">
          <mxGeometry x="410" y="200" width="60" height="30" as="geometry" />
        </mxCell>
        <mxCell id="YF7htum3i6kyVD8am5VY-58" value="false" style="text;strokeColor=none;align=center;fillColor=none;html=1;verticalAlign=middle;whiteSpace=wrap;rounded=0;" vertex="1" parent="1">
          <mxGeometry x="360" y="250" width="60" height="30" as="geometry" />
        </mxCell>
        <mxCell id="YF7htum3i6kyVD8am5VY-59" value="false" style="text;strokeColor=none;align=center;fillColor=none;html=1;verticalAlign=middle;whiteSpace=wrap;rounded=0;" vertex="1" parent="1">
          <mxGeometry x="210" y="340" width="60" height="30" as="geometry" />
        </mxCell>
        <mxCell id="YF7htum3i6kyVD8am5VY-60" value="true" style="text;strokeColor=none;align=center;fillColor=none;html=1;verticalAlign=middle;whiteSpace=wrap;rounded=0;" vertex="1" parent="1">
          <mxGeometry x="345" y="360" width="60" height="30" as="geometry" />
        </mxCell>
        <mxCell id="YF7htum3i6kyVD8am5VY-61" value="true" style="text;strokeColor=none;align=center;fillColor=none;html=1;verticalAlign=middle;whiteSpace=wrap;rounded=0;" vertex="1" parent="1">
          <mxGeometry x="380" y="500" width="60" height="30" as="geometry" />
        </mxCell>
        <mxCell id="YF7htum3i6kyVD8am5VY-62" value="false" style="text;strokeColor=none;align=center;fillColor=none;html=1;verticalAlign=middle;whiteSpace=wrap;rounded=0;" vertex="1" parent="1">
          <mxGeometry x="350" y="560" width="60" height="30" as="geometry" />
        </mxCell>
      </root>
    </mxGraphModel>
  </diagram>
</mxfile>
